<?xml version="1.0" encoding="UTF-8" standalone="no"?>
<svg
   viewBox="0 0 25 25"
   fill="#000000"
   aria-hidden="true"
   version="1.1"
   id="svg1"
   sodipodi:docname="nyt_small.svg"
   width="25"
   height="25"
   inkscape:version="1.4 (e7c3feb100, 2024-10-09)"
   xmlns:inkscape="http://www.inkscape.org/namespaces/inkscape"
   xmlns:sodipodi="http://sodipodi.sourceforge.net/DTD/sodipodi-0.dtd"
   xmlns="http://www.w3.org/2000/svg"
   xmlns:svg="http://www.w3.org/2000/svg">
  <defs
     id="defs1" />
  <sodipodi:namedview
     id="namedview1"
     pagecolor="#ffffff"
     bordercolor="#000000"
     borderopacity="0.25"
     inkscape:showpageshadow="2"
     inkscape:pageopacity="0.0"
     inkscape:pagecheckerboard="0"
     inkscape:deskcolor="#d1d1d1"
     inkscape:zoom="21.456522"
     inkscape:cx="27.870314"
     inkscape:cy="8.8085106"
     inkscape:window-width="2558"
     inkscape:window-height="1365"
     inkscape:window-x="0"
     inkscape:window-y="0"
     inkscape:window-maximized="1"
     inkscape:current-layer="svg1" />
  <path
     d="m 19.781373,4.3905359 c 0,-2.3069749 -2.192769,-3.0036357 -4.031496,-2.923691 v 0.205572 c 1.096384,0.079945 1.941513,0.5253508 1.941513,1.2676942 0,0.51393 -0.365461,1.1534874 -1.461845,1.1534874 -0.867971,0 -2.306975,-0.51393 -3.654614,-0.9593361 -1.484686,-0.51393 -2.9008495,-0.9935981 -4.0771783,-0.9935981 -2.3069749,0 -4.0543366,1.7131002 -4.0543366,3.8373444 0,1.7131002 1.324797,2.306975 1.8615684,2.5239677 l 0.034262,-0.079945 C 5.9966264,8.1936183 5.7796337,7.9423636 5.7796337,7.2114409 c 0,-0.6167161 0.4454061,-1.4390042 1.6331555,-1.4390042 1.0735428,0 2.478285,0.4796681 4.3398538,1.0050188 1.598894,0.445406 3.323415,0.8679708 4.282751,0.9935981 v 3.7459794 l -1.804466,1.484687 1.804466,1.553211 v 5.12788 c -0.925074,0.52535 -1.998617,0.69666 -2.923691,0.69666 -1.7131,0 -3.2891528,-0.479668 -4.591109,-1.918672 l 4.865205,-2.364078 V 7.999467 L 7.4470512,10.649062 C 8.0637673,9.0730098 9.2172548,7.896681 10.484949,7.1314962 l -0.03426,-0.091365 C 6.9217005,7.999467 3.7124934,11.231516 3.7124934,15.22875 c 0,4.78526 3.8259232,8.337088 8.2457216,8.337088 4.78526,0 7.594744,-3.745979 7.549062,-7.708951 h -0.09137 c -0.69666,1.518949 -1.861569,2.957953 -3.174945,3.711717 v -5.002253 l 1.88441,-1.518948 -1.88441,-1.518949 V 7.7824743 c 1.747362,0 3.551827,-1.1534875 3.551827,-3.3805177 M 9.7654468,17.592828 8.383546,18.289489 C 7.5384166,17.193105 6.9788039,15.639894 6.9788039,13.641277 c 0,-0.822289 0.091365,-1.941513 0.3654613,-2.729539 l 2.444023,-1.0963848 -0.034262,7.7660548 v 0 z"
     id="path1"
     sodipodi:nodetypes="cccsscssccssccccccsccccccssccccccccccsccccc"
     style="stroke-width:1.14207" />
</svg>
